<svg viewBox="0 0 48 48" xmlns="http://www.w3.org/2000/svg">
  <defs>
    <linearGradient id="bgGrad" x1="0%" y1="0%" x2="100%" y2="100%">
      <stop offset="0%" stop-color="#3b82f6"/>
      <stop offset="100%" stop-color="#1d4ed8"/>
    </linearGradient>
    <linearGradient id="shieldGrad" x1="0%" y1="0%" x2="100%" y2="100%">
      <stop offset="0%" stop-color="white" stop-opacity="0.95"/>
      <stop offset="100%" stop-color="white" stop-opacity="0.7"/>
    </linearGradient>
    <linearGradient id="flowGrad" x1="0%" y1="0%" x2="100%" y2="0%">
      <stop offset="0%" stop-color="white" stop-opacity="0.9"/>
      <stop offset="50%" stop-color="white" stop-opacity="1"/>
      <stop offset="100%" stop-color="white" stop-opacity="0.9"/>
    </linearGradient>
  </defs>
  
  <!-- Background - Blue matching Opzenix logo -->
  <rect width="48" height="48" rx="10" fill="url(#bgGrad)"/>
  
  <!-- Shield outline -->
  <path d="M24 6L10 11V21C10 29.5 16 36 24 40C32 36 38 29.5 38 21V11L24 6Z" 
        fill="none" stroke="url(#shieldGrad)" stroke-width="1.5"/>
  
  <!-- Infinity symbol -->
  <path d="M16 24C16 24 18 20 21 20C24 20 24 24 24 24C24 24 24 28 27 28C30 28 32 24 32 24C32 24 30 20 27 20C24 20 24 24 24 24C24 24 24 28 21 28C18 28 16 24 16 24Z"
        stroke="url(#flowGrad)" stroke-width="2.5" stroke-linecap="round" fill="none"/>
  
  <!-- Node points -->
  <circle cx="16" cy="24" r="2" fill="white"/>
  <circle cx="32" cy="24" r="2" fill="white"/>
  <circle cx="24" cy="24" r="2.5" fill="white"/>
  
  <!-- Checkmark -->
  <path d="M20 13L23 16L28 11" stroke="white" stroke-width="2" stroke-linecap="round" stroke-linejoin="round" fill="none"/>
</svg>